# xmcd
#
# Track frame offsets: 
#        150
#        17875
#        109450
#        167050
#        184225
#
# Disc length: 2564 seconds
#
# Revision: 0
# Processed by: cddbd v1.5.2PL0 Copyright (c) Steve Scherf et al.
# Submitted via: ExactAudioCopyFreeDBPlugin 1.0
#
DISCID=400a0205
DTITLE=Loren Mazzacane Connors ‎ - Long Nights
DYEAR=1996
DGENRE=Blues
TTITLE0=Long Nights I
TTITLE1=Long Nights II
TTITLE2=Long Nights III_Long Nights IV
TTITLE3=Long Nights V
TTITLE4=Long Nights VI
EXTD=
EXTT0=
EXTT1=
EXTT2=
EXTT3=
EXTT4=
PLAYORDER=
